# xmcd
#
# Track frame offsets:
#	150
#	17871
#	33803
#	47453
#	58109
#	74395
#	89650
#	101880
#	113982
#	127215
#	145952
#	163872
#	177514
#	189767
#	202895
#
# Disc length: 2917 seconds
#
# Revision: 1
# Processed by: cddbd v1.5.2PL0 Copyright (c) Steve Scherf et al.
# Submitted via: audiograbber 1.83.01
#
DISCID=db0b630f
DTITLE=Keith Jamieson - A Picture Of Australia
DYEAR=2015
DGENRE=Country
TTITLE0=A Picture Of Australia
TTITLE1=I Did It My Way
TTITLE2=The Blue Gum Tree Ball
TTITLE3=Gibson Express
TTITLE4=May We Never Forget
TTITLE5=Carve A Cross For Me On A Battle Tree
TTITLE6=Ghosts Of The Golden Mile
TTITLE7=Warrigal Creek
TTITLE8=I'm Going Back To The Barcoo
TTITLE9=Bush Ballads Forever
TTITLE10=The Early Morning Country Show
TTITLE11=Blackwater Junction
TTITLE12=Browny
TTITLE13=My People
TTITLE14=Good Morning Australia
EXTD=
EXTT0=
EXTT1=
EXTT2=
EXTT3=
EXTT4=
EXTT5=
EXTT6=
EXTT7=
EXTT8=
EXTT9=
EXTT10=
EXTT11=
EXTT12=
EXTT13=
EXTT14=
PLAYORDER=
